<?xml version="1.0" encoding="UTF-8"?>
<svg id="Layer_2" data-name="Layer 2" xmlns="http://www.w3.org/2000/svg" viewBox="0 0 1610.37 368.12">
  <defs>
    <style>
      .cls-1 {
        fill: #0aadc7;
      }
    </style>
  </defs>
  <g id="Layer_7" data-name="Layer 7">
    <g>
      <path class="cls-1" d="M332.1,368.12h-14.68c-9.94,0-18-8.06-18-18V18c0-9.94,8.06-18,18-18h14.68c9.94,0,18,8.06,18,18v332.12c0,9.94-8.06,18-18,18Z"/>
      <path class="cls-1" d="M597.77,367.65h-29.74c-5.47,0-9.93-4.4-10-9.88l-.07-5.71c-.11-8.57-10.2-12.93-16.64-7.27-15.48,13.59-37.1,22.22-62.12,22.22-36.28,0-57.09-12.27-70.42-29.34-12.8-17.07-18.67-42.15-18.67-78.43V117.19c0-5.52,4.48-10,10-10h30.68c5.52,0,10,4.48,10,10v139.92c0,34.68,7.47,67.22,52.82,67.22s62.95-38.41,62.95-81.09v-126.04c0-5.52,4.48-10,10-10h31.22c5.52,0,10,4.48,10,10v240.45c0,5.52-4.48,10-10,10Z"/>
      <path class="cls-1" d="M899.56,121.04l-93.69,224.77c-5.35,12.84-17.9,21.21-31.81,21.21h0c-13.91,0-26.46-8.36-31.81-21.21l-93.69-224.77c-2.75-6.59,2.09-13.85,9.23-13.85h32.89c4.11,0,7.8,2.51,9.3,6.34l48.48,123.1c9.33,23.68,42.86,23.64,52.13-.06l48.11-123.02c1.5-3.83,5.2-6.36,9.31-6.36h32.32c7.14,0,11.98,7.26,9.23,13.85Z"/>
      <path class="cls-1" d="M1148.91,245.41h-153.26c-13.48,0-23.09,13.06-19.11,25.94,10.67,34.5,38.97,54.62,77.16,54.62s62.97-15.16,75.88-23.86c4.45-3,10.48-1.91,13.64,2.43l10.34,14.22c3.07,4.22,2.39,10.08-1.57,13.47-13.28,11.34-46.03,33.74-104.7,33.74-75.22,0-126.97-52.28-126.97-132.84s58.15-131.24,128.58-131.24,120.04,50.15,120.04,121.11c0,1-.02,2.04-.05,3.09-.32,10.77-9.21,19.31-19.99,19.31ZM1095.78,211.27c14.36,0,23.97-14.66,18.38-27.89-9.63-22.81-30.87-44.67-66.85-44.67s-57.9,21.42-67.99,44.74c-5.69,13.15,4.09,27.81,18.42,27.81h98.05Z"/>
      <path class="cls-1" d="M1260.23,123.39c.06,8.11,9.92,11.97,15.53,6.12,12.74-13.28,29.53-20.09,47.89-20.09,8.31,0,14.86,1.01,19.38,2.05,4.24.97,7.18,4.82,6.99,9.17l-1.3,29.6c-.25,5.72-5.72,9.71-11.27,8.27s-12.69-2.68-20.2-2.68c-22.41,0-36.28,14.4-41.61,21.34-4.8,6.94-15.47,26.68-15.47,64.02v117.44c0,4.97-4.03,9-9,9h-33.22c-4.97,0-9-4.03-9-9V123.23c0-4.97,4.03-9,9-9h33.28c4.95,0,8.97,3.99,9,8.94v.23Z"/>
      <path class="cls-1" d="M1441.34,127.8c.05,7.94,9.6,11.91,15.29,6.37,15.16-14.77,36.88-24.75,63.05-24.75,72.02,0,90.7,47.48,90.7,108.3v140.92c0,4.97-4.03,9-9,9h-33.22c-4.97,0-9-4.03-9-9v-132.38c0-42.68-7.47-74.69-52.82-74.69s-65.09,40.01-65.09,88.56v118.51c0,4.97-4.03,9-9,9h-33.22c-4.97,0-9-4.03-9-9V123.23c0-4.97,4.03-9,9-9h33.28c4.95,0,8.97,3.99,9,8.94l.03,4.63Z"/>
      <path class="cls-1" d="M0,228.84v110.32c0,15.73,12.75,28.48,28.48,28.48h102.72c77.33,0,128.21-42.4,128.21-107.76,0-28.11-9.42-51.04-26.98-67.01-11-10-12.23-26.74-3.04-38.43,11.45-14.56,17.55-33.46,17.55-55.7C246.94,37.39,199.05.48,120.73.48H28.48C12.75.48,0,13.23,0,28.96v87.61c0,15.67,12.79,28.32,28.46,28.15l26-.28c15.68-.17,28.28-12.98,28.18-28.66l-.09-13.62c-.1-15.67,12.48-28.48,28.16-28.66l17.01-.19c24.44,0,38.91,13.47,38.91,35.42s-14.47,35.42-38.91,35.42h-34.39c-6.78,0-13.33,2.45-18.45,6.89L9.71,207.57c-6.16,5.35-9.71,13.11-9.71,21.27ZM132.2,294.81h-20.9c-15.73,0-28.48-12.75-28.48-28.48v-21.85c0-15.73,12.75-28.48,28.48-28.48h20.9c27.44,0,43.4,14.47,43.4,39.41s-15.96,39.41-43.4,39.41Z"/>
    </g>
  </g>
</svg>